# xmcd CD database file
#
# Track frame offsets:
#	150
#	19988
#	38607
#	89899
#	107901
#	159992
#	229214
#
# Disc length: 3505 seconds
#
# Revision: 2
# Processed by: cddbd v1.5.2PL0 Copyright (c) Steve Scherf et al.
# Submitted via: CDex 1.51
#
DISCID=540daf07
DTITLE=Albert Collins - Live at Montreux 1992
DYEAR=2008
DGENRE=Blues
TTITLE0=Iceman
TTITLE1=Honey Hush
TTITLE2=Lights are on (but nobody's home)
TTITLE3=If you love me like you say
TTITLE4=Too many dirty dishes
TTITLE5=Put the shoe on the other foot
TTITLE6=Frosty
EXTD=YEAR: 2008
EXTT0=
EXTT1=
EXTT2=
EXTT3=
EXTT4=
EXTT5=
EXTT6=
PLAYORDER=
